<svg width="400" height="140" viewBox="0 0 400 140" fill="none" aria-labelledby="descId" version="1.1" id="svg30" xmlns="http://www.w3.org/2000/svg" xmlns:xlink="http://www.w3.org/1999/xlink"><style id="style4">@supports (-moz-appearance:auto){.header{font-size:15.5px}}.gray{font:400 12px &apos;Segoe UI&apos;,Ubuntu,Sans-Serif;fill:#f1f1eb}.badge{font:600 11px &apos;Segoe UI&apos;,Ubuntu,Sans-Serif}.badge rect{opacity:.2}*{animation-duration:0s!important;animation-delay:0s!important}</style><rect data-testid="card-bg" x=".5" y=".5" rx="4.5" height="99%" stroke="#050B0E" width="399" fill="#2A2E30" stroke-opacity="1" id="rect6"/><g data-testid="card-title" transform="translate(25 35)" id="g18"><g id="g12"><svg x="0" y="-13" viewBox="0 0 16 16" version="1.1" width="16" height="16" id="svg10" style="fill:#e28905"><path fill-rule="evenodd" d="M2 2.5A2.5 2.5 0 0 1 4.5 0h8.75a.75.75 0 0 1 .75.75v12.5a.75.75 0 0 1-.75.75h-2.5a.75.75 0 1 1 0-1.5h1.75v-2h-8a1 1 0 0 0-.714 1.7.75.75 0 0 1-1.072 1.05A2.495 2.495 0 0 1 2 11.5v-9zm10.5-1V9h-8c-.356 0-.694.074-1 .208V2.5a1 1 0 0 1 1-1h8zM5 12.25v3.25a.25.25 0 0 0 .4.2l1.45-1.087a.25.25 0 0 1 .3 0L8.6 15.7a.25.25 0 0 0 .4-.2v-3.25a.25.25 0 0 0-.25-.25h-3.5a.25.25 0 0 0-.25.25z" id="path8"/></svg></g><g transform="translate(25)" id="g16"><text x="0" y="0" data-testid="header" id="text14" style="font:600 18px 'Segoe UI',Ubuntu,Sans-Serif;fill:#fff;animation:fadeInAnimation .8s ease-in-out forwards">lighthouse-badger-action</text></g></g><g data-testid="main-card-body" transform="translate(0 55)" id="g28"><text x="25" y="-5" id="text26" style="font:400 15px 'Segoe UI',Ubuntu,Sans-Serif;fill:#f1f1eb"><tspan dy="1.2em" x="25" id="tspan20">Generates, adds &amp; updates manually/automatically</tspan><tspan dy="1.2em" x="25" id="tspan22">Lighthouse badges &amp; reports from 1,2... URL(s) to</tspan><tspan dy="1.2em" x="25" id="tspan24">1,2... repo(s) in parallel.</tspan></text></g></svg>
