<svg width="400" height="150" viewBox="0 0 400 150" fill="none" aria-labelledby="descId" version="1.1" id="svg40" xmlns="http://www.w3.org/2000/svg" xmlns:xlink="http://www.w3.org/1999/xlink"><style id="style4">@supports (-moz-appearance:auto){.header{font-size:15.5px}}.badge{font:600 11px &apos;Segoe UI&apos;,Ubuntu,Sans-Serif}.badge rect{opacity:.2}*{animation-duration:0s!important;animation-delay:0s!important}.lang{font:400 12px 'Segoe UI',Ubuntu,Sans-Serif;fill:#434d58}</style><rect data-testid="card-bg" x=".5" y=".5" rx="4.5" height="99%" stroke="#050B0E" width="399" fill="#fffefe" stroke-opacity="1" id="rect6"/><g data-testid="card-title" transform="translate(25 35)"><g><svg x="0" y="-13" viewBox="0 0 16 16" version="1.1" width="16" height="16" id="svg10" style="fill:#2f80ed"><path fill-rule="evenodd" d="M2 2.5A2.5 2.5 0 0 1 4.5 0h8.75a.75.75 0 0 1 .75.75v12.5a.75.75 0 0 1-.75.75h-2.5a.75.75 0 1 1 0-1.5h1.75v-2h-8a1 1 0 0 0-.714 1.7.75.75 0 0 1-1.072 1.05A2.495 2.495 0 0 1 2 11.5v-9zm10.5-1V9h-8c-.356 0-.694.074-1 .208V2.5a1 1 0 0 1 1-1h8zM5 12.25v3.25a.25.25 0 0 0 .4.2l1.45-1.087a.25.25 0 0 1 .3 0L8.6 15.7a.25.25 0 0 0 .4-.2v-3.25a.25.25 0 0 0-.25-.25h-3.5a.25.25 0 0 0-.25.25z" id="path8"/></svg></g><g transform="translate(25)"><text x="0" y="0" data-testid="header" id="text14" style="font:600 18px 'Segoe UI',Ubuntu,Sans-Serif;fill:#2a2e30;animation:fadeInAnimation .8s ease-in-out forwards">Light-Particle</text></g></g><g data-testid="main-card-body" transform="translate(0 55)"><text x="25" y="-5" id="text26" style="font:400 13px 'Segoe UI',Ubuntu,Sans-Serif;fill:#434d58"><tspan dy="1.2em" x="25" id="tspan20">Website-Boilerplate | Combo of Webpack, Bootstrap... to</tspan><tspan dy="1.2em" x="25" id="tspan22">develop/build a cross-browser &amp; -device, light-theme blog</tspan><tspan dy="1.2em" x="25" id="tspan24">+ portfolio website with exchangeable WebGL header.</tspan></text><g transform="translate(30 75)"><g><circle cx="0" cy="-5" r="6" fill="#C6538C"/><text x="15" class="lang">SCSS</text></g></g><g transform="translate(30 75)"><g><circle cx="65" cy="-5" r="6" fill="#F1E05A"/><text x="80" class="lang">JavaScript</text></g></g><g transform="translate(30 75)"><g><circle cx="160" cy="-5" r="6" fill="#E34C26"/><text x="175" class="lang">HTML</text></g></g><g transform="translate(30 75)"><g><circle cx="230" cy="-5" r="6" fill="#563D7C"/><text x="245" class="lang">CSS</text></g></g></g></svg>
